<svg width="19" height="14" viewBox="0 0 19 14" fill="none" xmlns="http://www.w3.org/2000/svg">
<path d="M0.465735 7.13284C0.465715 7.68514 0.913436 8.13288 1.46574 8.13288H2.52823C3.0805 8.13288 3.52821 7.68518 3.52823 7.13292L3.52824 6.96305C3.52826 6.41075 3.08054 5.96301 2.52824 5.96301H1.46574C0.913471 5.96301 0.465762 6.41071 0.465742 6.96298L0.465735 7.13284ZM0.465779 12.1301C0.465779 12.6824 0.913494 13.1301 1.46578 13.1301H2.52828C3.08056 13.1301 3.52828 12.6824 3.52828 12.1301V11.8507C3.52828 11.2984 3.08056 10.8507 2.52828 10.8507H1.46578C0.913493 10.8507 0.465779 11.2984 0.465779 11.8507V12.1301ZM0.465779 2.06987C0.465779 2.62215 0.913494 3.06987 1.46578 3.06987H2.52828C3.08056 3.06987 3.52828 2.62215 3.52828 2.06987V1.98767C3.52828 1.43539 3.08056 0.987671 2.52828 0.987671H1.46578C0.913494 0.987671 0.465779 1.43539 0.465779 1.98767V2.06987ZM5.05851 7.13284C5.05849 7.68514 5.50621 8.13288 6.05851 8.13288H17.0585C17.6108 8.13288 18.0585 7.68518 18.0585 7.13291L18.0585 6.96305C18.0585 6.41075 17.6108 5.96301 17.0585 5.96301H6.05852C5.50625 5.96301 5.05854 6.41071 5.05852 6.96298L5.05851 7.13284ZM5.05855 12.1301C5.05855 12.6824 5.50627 13.1301 6.05855 13.1301H17.0585C17.6108 13.1301 18.0585 12.6824 18.0585 12.1301L18.0586 11.8507C18.0586 11.2984 17.6108 10.8507 17.0586 10.8507H6.05855C5.50627 10.8507 5.05855 11.2984 5.05855 11.8507V12.1301ZM6.05855 0.987671C5.50627 0.987671 5.05855 1.43539 5.05855 1.98767L5.05855 2.06987C5.05855 2.62215 5.50627 3.06987 6.05855 3.06987H17.0586C17.6108 3.06987 18.0586 2.62216 18.0586 2.06987L18.0586 1.98767C18.0586 1.43539 17.6108 0.987671 17.0586 0.987671H6.05855Z" fill="white"/>
</svg>
